SplineFontDB: 3.0
FontName: YawkeyWay
FullName: Yawkey Way
FamilyName: Yawkey Way
Weight: Regular
Copyright: 
Version: 2015-08-06
ItalicAngle: 0
UnderlinePosition: -113
UnderlineWidth: 20
Ascent: 800
Descent: 200
InvalidEm: 0
sfntRevision: 0x00010000
LayerCount: 2
Layer: 0 0 "Back" 1
Layer: 1 0 "Fore" 0
XUID: [1021 270 -1463357204 394131]
FSType: 4
OS2Version: 3
OS2_WeightWidthSlopeOnly: 0
OS2_UseTypoMetrics: 1
CreationTime: 1438948369
ModificationTime: 1456015805
PfmFamily: 81
TTFWeight: 400
TTFWidth: 5
LineGap: 0
VLineGap: 0
Panose: 0 0 0 0 0 0 0 0 0 0
OS2TypoAscent: 800
OS2TypoAOffset: 0
OS2TypoDescent: -200
OS2TypoDOffset: 0
OS2TypoLinegap: 0
OS2WinAscent: 802
OS2WinAOffset: 0
OS2WinDescent: 20
OS2WinDOffset: 0
HheadAscent: 800
HheadAOffset: 0
HheadDescent: -200
HheadDOffset: 0
OS2SubXSize: 700
OS2SubYSize: 650
OS2SubXOff: 0
OS2SubYOff: 140
OS2SupXSize: 700
OS2SupYSize: 650
OS2SupXOff: 0
OS2SupYOff: 477
OS2StrikeYSize: 50
OS2StrikeYPos: 250
OS2CapHeight: 0
OS2XHeight: 0
OS2Vendor: 'pyrs'
OS2CodePages: 00000001.00000000
OS2UnicodeRanges: 00000001.00000000.00000000.00000000
Lookup: 258 0 0 "'kern' Horizontal Kerning lookup 0" { "'kern' Horizontal Kerning lookup 0 subtable"  } ['kern' ('DFLT' <'dflt' > ) ]
MarkAttachClasses: 1
DEI: 91125
TtTable: prep
PUSHW_1
 0
CALL
SVTCA[y-axis]
PUSHW_3
 1
 3
 2
CALL
SVTCA[x-axis]
PUSHW_3
 4
 3
 2
CALL
SVTCA[x-axis]
PUSHW_8
 4
 32
 28
 22
 17
 10
 0
 8
CALL
PUSHW_8
 5
 43
 35
 31
 17
 10
 0
 8
CALL
PUSHW_8
 6
 35
 28
 22
 17
 10
 0
 8
CALL
SVTCA[y-axis]
PUSHW_8
 1
 33
 28
 22
 17
 10
 0
 8
CALL
PUSHW_8
 2
 54
 44
 31
 25
 15
 0
 8
CALL
PUSHW_8
 3
 36
 28
 22
 17
 10
 0
 8
CALL
SVTCA[y-axis]
PUSHW_3
 7
 2
 7
CALL
PUSHW_1
 0
DUP
RCVT
RDTG
ROUND[Black]
RTG
WCVTP
EndTTInstrs
TtTable: fpgm
PUSHW_1
 0
FDEF
MPPEM
PUSHW_1
 9
LT
IF
PUSHB_2
 1
 1
INSTCTRL
EIF
PUSHW_1
 511
SCANCTRL
PUSHW_1
 68
SCVTCI
PUSHW_2
 9
 3
SDS
SDB
ENDF
PUSHW_1
 1
FDEF
DUP
DUP
RCVT
ROUND[Black]
WCVTP
PUSHB_1
 1
ADD
ENDF
PUSHW_1
 2
FDEF
PUSHW_1
 1
LOOPCALL
POP
ENDF

StartChar: D
Encoding: 68 68 4
Width: 598
Flags: HW
LayerCount: 2
Back
Fore
SplineSet
590 414 m 1
 506 328 572 233 519 98 c 0
 503 56 394 -47 281 25 c 0
 148 110 104 41 47 15 c 1
 77 81 156 315 37 412 c 1
 72 466 152 549 72 739 c 1
 136 756 165 700 215 717 c 0
 285 741 439 839 507 684 c 0
 580 518 510 444 590 414 c 1
 590 414 l 1
351 169 m 1
 453 219 446 392 349 413 c 1
 460 427 389 638 300 612 c 0
 201 583 230 433 283 409 c 1
 180 373 238 160 351 169 c 1
EndSplineSet
EndChar

StartChar: E
Encoding: 69 69 5
Width: 612
Flags: HW
LayerCount: 2
Back
Fore
SplineSet
592 12 m 1
 553 29 463 91 406 43 c 0
 350 -5 250 -6 206 31 c 1
 179 37 149 -43 56 32 c 1
 11 26 210 206 70 434 c 1
 134 477 157 696 83 766 c 1
 150 804 236 748 257 746 c 0
 282 744 347 834 449 742 c 0
 458 734 524 738 547 800 c 1
 557 778 561 722 548 700 c 0
 535 677 557 647 567 625 c 0
 576 603 555 546 511 549 c 0
 449 553 426 633 377 631 c 0
 329 629 270 566 279 524 c 0
 302 404 408 422 422 497 c 1
 451 466 472 436 439 392 c 1
 467 367 470 323 454 296 c 1
 409 358 299 343 311 260 c 0
 330 117 453 185 490 228 c 0
 527 271 557 198 550 177 c 0
 543 155 564 59 592 12 c 1
EndSplineSet
EndChar

StartChar: F
Encoding: 70 70 6
Width: 612
Flags: HW
LayerCount: 2
Back
Fore
SplineSet
454 271 m 1
 409 333 273 343 284 260 c 1
 249 177 301 79 344 55 c 1
 305 4 237 0 194 24 c 1
 142 0 98 -1 56 44 c 1
 144 161 130 352 70 434 c 1
 134 477 130 672 56 742 c 1
 113 828 236 748 257 746 c 0
 282 744 318 822 449 767 c 0
 460 762 474 732 503 778 c 1
 543 758 549 687 523 661 c 1
 533 639 558 560 517 557 c 0
 455 552 376 646 330 629 c 0
 284 612 273 553 284 511 c 0
 304 436 399 410 433 499 c 1
 488 455 436 388 439 392 c 1
 467 367 470 298 454 271 c 1
EndSplineSet
EndChar

StartChar: G
Encoding: 71 71 7
Width: 661
Flags: HW
LayerCount: 2
Back
Fore
SplineSet
221.943359375 291 m 0
 222.943359375 133 375.943359375 130 383.943359375 291 c 1
 374.943359375 307 353.943359375 331 340.943359375 341 c 1
 367.943359375 357 436.943359375 354 461.943359375 326 c 1
 457.943359375 323 576.943359375 379 620.943359375 324 c 1
 574.943359375 272 525.943359375 211 580.943359375 171 c 1
 577.943359375 128 545.943359375 107 593.943359375 50 c 1
 557.943359375 18 505.943359375 -17 427.943359375 67 c 1
 277.943359375 -77 46.943359375 47 62.943359375 236 c 0
 73.943359375 363 61.943359375 375 17.943359375 393 c 1
 88.943359375 415 51.943359375 585 51.943359375 585 c 1
 61.943359375 875 510.943359375 863 533.943359375 613 c 1
 544.943359375 583 546.943359375 562 566.943359375 543 c 0
 579.943359375 530 520.943359375 480 456.943359375 529 c 1
 415.943359375 517 355.943359375 487 355.943359375 525 c 0
 356.943359375 562 380.943359375 548 386.943359375 589 c 1
 358.943359375 699 211.943359375 684 226.943359375 489 c 0
 230.943359375 442 232.943359375 400 266.943359375 395 c 1
 203.943359375 354 220.943359375 354 221.943359375 291 c 0
EndSplineSet
EndChar

StartChar: H
Encoding: 72 72 8
Width: 686
Flags: HW
LayerCount: 2
Back
Fore
SplineSet
424 583 m 1
 450 632 442 668 428 699 c 0
 388 788 493 825 538 776 c 1
 565 783 653 808 644 737 c 0
 638 688 608 661 604 590 c 1
 604 590 602 439 647 380 c 1
 565 302 637 106 680 82 c 1
 608 -11 519 -42 427 58 c 1
 479 146 478 248 442 327 c 1
 379 354 275 328 284 260 c 1
 249 177 271 74 314 50 c 1
 275 -1 237 0 194 24 c 1
 142 0 111 13 69 58 c 1
 157 175 130 352 70 434 c 1
 134 477 130 672 56 742 c 1
 113 828 146 770 167 768 c 0
 191 766 319 834 303 759 c 1
 257 742 273 553 284 511 c 0
 302 443 405 430 449 494 c 1
 452 527 453 554 424 583 c 1
EndSplineSet
EndChar

StartChar: I
Encoding: 73 73 9
Width: 285
Flags: W
VStem: -44.6504 286
LayerCount: 2
Back
Fore
SplineSet
225.349609375 752 m 1
 153.349609375 660 153.916015625 463.000976562 208.349609375 404 c 1
 126.349609375 326 198.349609375 108 241.349609375 84 c 1
 170.349609375 -9 47.349609375 -30 -44.650390625 70 c 1
 43.349609375 187 36.349609375 316 -23.650390625 398 c 1
 10.349609375 466 57.349609375 624 -44.650390625 750 c 1
 27.349609375 802 95.349609375 824 225.349609375 752 c 1
EndSplineSet
EndChar

StartChar: L
Encoding: 76 76 12
Width: 606
Flags: HW
LayerCount: 2
Back
Fore
SplineSet
376 152 m 1
 550 212 592 190 564 78 c 1
 586 -20 507 -8 462 6 c 0
 409.136796966 22.4463298328 360 14 322 -10 c 129
 252 32 188 12 134 0 c 1
 109 -8 94 -2 44 35 c 1
 94 112 101 318 50 360 c 1
 160 520 39 746 39 746 c 1
 39 746 58 771 82 784 c 0
 106 796 144 787 168 781 c 1
 224 816 288 760 272 730 c 1
 181 610 224 440 250 398 c 1
 218 332 208 244 230 162 c 1
 268 172 332 184 376 152 c 1
EndSplineSet
EndChar

StartChar: M
Encoding: 77 77 13
Width: 810
Flags: HW
LayerCount: 2
Back
Fore
SplineSet
400 282 m 0
 481.308161658 262.124671595 499.5859375 359.275390625 552 375 c 0
 603.297372429 387.821994757 614.151613902 255.892271844 610.5 205.5 c 128
 608.833333333 182.5 604.5 159.333333333 597.5 136 c 0
 591.166666667 115.333333333 580 93.6666666667 564 71 c 0
 551.50524616 53.150351659 579.988304359 33.2551168426 592 28 c 128
 616.256818651 17.3876418402 641.669084982 21.0863562279 656 39 c 1
 679.474018326 39 700.147511265 24.2392019856 721 19.5 c 128
 753.04672335 12.2166537835 774.678482651 55.0772181939 785 74 c 1
 763.666666667 112 748 151.333333333 738 192 c 0
 730.231046804 225.665463849 724.910261427 264.739368083 729 307 c 128
 733.75441509 356.128955926 749.677807464 395.254010663 774 430 c 1
 725.275563997 471.031104002 703.863103586 589.181578767 727 675.5 c 128
 735.666666667 707.833333333 723.333007812 695.333007812 750 716 c 1
 784.320622384 782.189771741 700.307966659 804.51830526 648 788 c 1
 644 792.666666667 637.5 795.666666667 628.5 797 c 128
 606.137567064 800.312953027 585.36010155 795.656600749 569.5 788 c 128
 525.78241706 766.894959959 529.285977569 718.581312951 559 682.5 c 128
 563.666666667 676.833333333 570.333333333 671.333333333 579 666 c 1
 522.477086586 627.140497031 506.780242143 536.989183967 457 482.5 c 128
 432.333333333 455.5 412.333333333 437.333333333 397 428 c 1
 389 431.333333333 375.833333333 448.333333333 357.5 479 c 1
 335.5 522 287 639 245 668 c 1
 262 678 269 688 280 710 c 0
 324 790 202 817 176 790 c 1
 151 798 94 794 44 757 c 1
 151 675 101 474 50 432 c 1
 160 272 39 76 39 76 c 1
 39 76 59 37 83 24 c 0
 107 12 143 42 168 41 c 1
 200 0 276 43 260 73 c 1
 169 193 232 386 262 377 c 0
 302.285677105 364.914296868 336.859064578 297.434450881 400 282 c 0
EndSplineSet
EndChar

StartChar: N
Encoding: 78 78 14
Width: 536
Flags: HW
LayerCount: 2
Back
Fore
SplineSet
-18.0341796875 76 m 5
 -18.0341796875 76 102.965820312 272 -7.0341796875 432 c 5
 43.9658203125 474 93.9658203125 675 -13.0341796875 757 c 5
 36.9658203125 794 93.9658203125 798 118.965820312 790 c 5
 144.965820312 817 266.965820312 790 222.965820312 710 c 4
 211.965820312 688 204.965820312 678 187.965820312 668 c 5
 229.965820312 639 287.965820312 485 309.965820312 442 c 5
 351.965820312 484 366.965820312 553 301.965820312 677 c 4
 256.965820312 764 366.965820312 803 412.965820312 754 c 5
 439.965820312 761 513.965820312 784 504.965820312 713 c 4
 498.965820312 664 446.965820312 667 442.965820312 596 c 5
 422.965820312 545 434.965820312 459 478.965820312 394 c 5
 397.965820312 277 439.965820312 115 487.965820312 58 c 4
 500.965820312 43 443.965820312 -22 379.965820312 27 c 5
 338.965820312 15 279.965820312 2 279.965820312 40 c 4
 280.965820312 77 326.965820312 89 317.965820312 118 c 4
 309.965820312 147 244.965820312 364 204.965820312 377 c 4
 174.965820312 386 111.965820312 193 202.965820312 73 c 5
 218.965820312 43 142.965820312 0 110.965820312 41 c 5
 85.9658203125 42 49.9658203125 12 25.9658203125 24 c 4
 1.9658203125 37 -18.0341796875 76 -18.0341796875 76 c 5
EndSplineSet
EndChar

StartChar: O
Encoding: 79 79 15
Width: 615
Flags: W
VStem: 407.373 127<446.04 591.337>
LayerCount: 2
Back
Fore
SplineSet
597.373046875 413 m 1
 519.373046875 356 541.373046875 263 538.373046875 217 c 0
 512.373046875 -126 66.373046875 -18 88.373046875 236 c 0
 99.373046875 363 70.373046875 382 26.373046875 400 c 1
 97.373046875 422 77.373046875 585 77.373046875 585 c 1
 87.373046875 875 514.373046875 875 534.373046875 563 c 0
 535.373046875 533 522.373046875 445 597.373046875 413 c 1
409.373046875 291 m 0
 411.373046875 348 417.373046875 383 366.373046875 405 c 1
 397.373046875 424 407.373046875 434 407.373046875 489 c 0
 410.373046875 707 237.373046875 684 252.373046875 489 c 0
 256.373046875 442 263.373046875 410 297.373046875 405 c 1
 234.373046875 364 246.373046875 354 247.373046875 291 c 0
 248.373046875 133 401.373046875 130 409.373046875 291 c 0
EndSplineSet
EndChar

StartChar: P
Encoding: 80 80 16
Width: 578
Flags: HW
LayerCount: 2
Back
Fore
SplineSet
261.672851562 331 m 1
 205.672851562 233 269.672851562 46 282.672851562 33 c 1
 215.672851562 -16 163.672851562 39 163.672851562 39 c 1
 115.672851562 -2 25.6728515625 21 25.6728515625 21 c 1
 57.6728515625 71 162.672851562 294 58.6728515625 435 c 1
 125.672851562 525 141.672851562 594 85.6728515625 761 c 1
 156.672851562 780 197.672851562 737 197.672851562 737 c 1
 221.672851562 783 280.444335938 777.637695312 337.672851562 779 c 0
 505.672851562 783 477.672851562 579 551.672851562 557 c 1
 471.672851562 491 560.6484375 364.360351562 391.672851562 311 c 0
 353.672851562 299 308.672851562 294 261.672851562 331 c 1
424.620117188 541.596679688 m 0
 424.620117188 597.319335938 375.826171875 643.569335938 321.494140625 643.569335938 c 0
 264.07421875 643.569335938 213.453125 593.80078125 213.453125 544.365234375 c 0
 213.453125 489.7890625 285.211914062 433 329.672851562 433 c 0
 378.776367188 433 424.620117188 483.259765625 424.620117188 541.596679688 c 0
EndSplineSet
EndChar

StartChar: R
Encoding: 82 82 18
Width: 677
Flags: HW
LayerCount: 2
Back
Fore
SplineSet
667.791015625 126 m 1
 561.791015625 -59 469.791015625 14 469.791015625 14 c 1
 443.791015625 59 348.791015625 154 348.791015625 154 c 1
 469.791015625 283 300.791015625 322 287.791015625 294 c 1
 167.791015625 215 248.791015625 46 261.791015625 33 c 1
 194.791015625 -16 115.791015625 59 115.791015625 59 c 1
 67.791015625 18 -3.208984375 51 -3.208984375 51 c 1
 30.791015625 63 141.791015625 294 37.791015625 435 c 1
 104.791015625 525 149.791015625 596 93.791015625 763 c 1
 164.791015625 782 227.791015625 734 227.791015625 734 c 1
 287.791015625 797 384.791015625 786 384.791015625 786 c 1
 497.791015625 776 525.791015625 592 594.791015625 560 c 1
 568.791015625 530 561.791015625 508 538.791015625 512 c 1
 563.791015625 465 525.791015625 379 499.791015625 376 c 1
 544.791015625 316 548.791015625 290 533.791015625 275 c 1
 566.791015625 256 587.791015625 217 587.791015625 217 c 1
 566.791015625 133 643.791015625 120 667.791015625 126 c 1
 667.791015625 126 l 1
393.791015625 430 m 0
 431.791015625 466 430.791015625 549 393.791015625 586 c 0
 356.791015625 623 303.791015625 615 259.791015625 586 c 0
 205.791015625 551 214.791015625 473 248.791015625 433 c 0
 289.791015625 385 326.791015625 366 393.791015625 430 c 0
EndSplineSet
EndChar

StartChar: S
Encoding: 83 83 19
Width: 563
Flags: HW
LayerCount: 2
Back
Fore
SplineSet
542 286 m 0
 558 216 558 0 365 3 c 0
 229 5 184 82 161 77 c 0
 111 67 67 20 62 2 c 0
 57 -15 20 68 47 118 c 0
 74 168 78 184 53 212 c 0
 28 241 100 298 100 298 c 1
 110 263 210 118 308 155 c 0
 386 185 387 248 341 291 c 0
 295 333 252 323 240 310 c 0
 228 296 224 363 190 380 c 0
 157 397 57 481 83 581 c 0
 110 680 130 709 197 741 c 0
 285 783 360 717 399 709 c 0
 438 701 481 731 487 762 c 1
 502 750 513 728 516 689 c 0
 519 654 474 647 489 630 c 0
 558 552 490 480 490 480 c 2
 488 491 416 642 317 597 c 0
 287 584 226 390 421 447 c 1
 409 390 519 384 542 286 c 0
EndSplineSet
EndChar

StartChar: T
Encoding: 84 84 20
Width: 578
Flags: HW
LayerCount: 2
Back
Fore
SplineSet
52 797 m 1
 64 775 99 738 140 739 c 0
 191 741 224 752 272 761 c 0
 322 771 422 696 522 796 c 1
 555 752 543 692 539 669 c 1
 554 644 552 564 513 524 c 1
 485 560 408 610 370 592 c 1
 370 592 367 441 412 382 c 1
 330 304 402 108 445 84 c 1
 374 -9 251 -30 159 70 c 1
 247 187 240 294 180 376 c 1
 214 444 228 522 206 591 c 1
 171 596 101 586 67 524 c 1
 29 564 14 623 32 663 c 1
 14 717 23 753 52 797 c 1
EndSplineSet
EndChar

StartChar: U
Encoding: 85 85 21
Width: 621
Flags: HW
LayerCount: 2
Back
Fore
SplineSet
538.931640625 563 m 0
 539.931640625 533 526.931640625 445 601.931640625 413 c 1
 523.931640625 356 545.931640625 263 542.931640625 217 c 0
 516.931640625 -127 68.931640625 -19 90.931640625 236 c 0
 101.931640625 363 72.931640625 382 28.931640625 400 c 1
 99.931640625 422 79.931640625 585 79.931640625 585 c 1
 84.931640625 718 37.931640625 736 37.931640625 736 c 1
 37.931640625 736 31.931640625 790 81.931640625 788 c 1
 94.931640625 753 179.931640625 771 166.931640625 771 c 1
 198.931640625 813 292.931640625 764 277.931640625 735 c 0
 240.931640625 657 240.931640625 531 254.931640625 489 c 1
 258.931640625 442 265.931640625 410 299.931640625 405 c 1
 236.931640625 364 248.931640625 354 249.931640625 291 c 0
 250.931640625 133 403.931640625 130 411.931640625 291 c 0
 413.931640625 348 419.931640625 383 368.931640625 405 c 1
 399.931640625 424 409.931640625 434 409.931640625 489 c 0
 411.931640625 599 414.931640625 658 396.931640625 693 c 1
 390.931640625 734 358.931640625 734 358.931640625 771 c 0
 358.931640625 809 417.931640625 796 458.931640625 784 c 1
 522.931640625 832 582.931640625 766 568.931640625 753 c 0
 549.931640625 734 548.931640625 736 537.931640625 706 c 1
 541.931640625 660 528.931640625 715 538.931640625 563 c 0
EndSplineSet
EndChar

StartChar: V
Encoding: 86 86 22
Width: 794
Flags: HW
LayerCount: 2
Back
Fore
SplineSet
241 216 m 0
 199 321 182 338 119 377 c 1
 183 415 127 547 127 547 c 1
 100 677 24 705 24 705 c 1
 24 705 0 772 49 782 c 1
 70 751 136 765 123 762 c 1
 144 810 264 794 257 762 c 0
 244 700 284 436 371 397 c 1
 343 349 347 364 363 303 c 0
 403 150 450 131 494 287 c 0
 509 342 523 375 478 407 c 1
 567 420 560 514 570 682 c 0
 573 723 531 766 548 800 c 1
 548 800 612 795 650 774 c 1
 723 807 810 768 794 758 c 0
 771 744 762 689 745 662 c 1
 733 582 653 424 743 393 c 1
 654 355 635 252 621 208 c 0
 608 168 558 66 594 0 c 1
 527 -48 415 26 415 26 c 1
 336 -32 324 0 280 0 c 1
 324 58 304 58 241 216 c 0
EndSplineSet
EndChar

StartChar: W
Encoding: 87 87 23
Width: 1172
Flags: HW
LayerCount: 2
Back
Fore
SplineSet
409 433 m 1
 381 385 366 357 387 298 c 0
 422 202 426 194 461 285 c 0
 482 338 515 369 469 401 c 1
 515 408 512 461 529 491 c 1
 526 499 521 519 516 528 c 0
 469 618 541 629 618 603 c 1
 645 623 745 640 724 564 c 0
 711 516 712 521 722 484 c 0
 741 424 752 418 787 402 c 1
 759 354 763 369 779 308 c 0
 819 155 848 203 864 301 c 0
 871 344 892 389 847 421 c 1
 914 481 878 471 862 638 c 1
 852 678 821 737 832 773 c 1
 832 773 892 764 932 749 c 1
 999 793 1116 774 1101 762 c 0
 1081 745 1080 714 1067 685 c 1
 1069 603 988 434 1078 403 c 1
 989 365 1012 227 998 183 c 0
 985 143 979 71 1015 5 c 1
 948 -43 816 19 816 19 c 1
 737 -39 725 5 681 5 c 1
 725 63 705 63 642 221 c 0
 635 239 627 288 621 301 c 1
 612 276 605 222 600 206 c 0
 587 166 537 64 573 -2 c 1
 506 -50 394 24 394 24 c 1
 315 -34 324 -2 280 -2 c 1
 294 74 313 56 250 214 c 0
 208 319 230 374 167 413 c 1
 214 441 229 574 210 629 c 0
 197 666 190 706 137 759 c 1
 184 771 217 781 270 746 c 1
 306 774 366 778 409 763 c 1
 343 697 332 468 409 433 c 1
EndSplineSet
EndChar

StartChar: X
Encoding: 88 88 24
Width: 740
Flags: HW
LayerCount: 2
Back
Fore
SplineSet
724.328125 772 m 1
 599.328125 685 550.328125 607 577.328125 540 c 1
 435.328125 457 416.328125 371 568.328125 245 c 1
 552.328125 173 605.328125 114 715.328125 34 c 1
 664.328125 25 607.328125 27 564.328125 51 c 1
 514.328125 18 473.328125 5 439.328125 10 c 1
 470.328125 131 440.328125 205 350.328125 232 c 1
 261.328125 176 240.328125 98 287.328125 0 c 1
 214.328125 3 160.328125 17 122.328125 42 c 1
 61.328125 2 20.328125 -7 -37.671875 13 c 1
 96.328125 125 145.328125 199 109.328125 237 c 1
 243.328125 346 288.328125 464 130.328125 521 c 1
 162.328125 582 105.328125 674 6.328125 722 c 1
 48.328125 745 104.328125 756 164.328125 734 c 1
 192.328125 770 229.328125 785 275.328125 781 c 1
 244.328125 729 236.328125 691 249.328125 667 c 0
 271.328125 625 303.328125 601 351.328125 583 c 1
 391.328125 601 415.328125 637 435.328125 674 c 1
 435.328125 674 434.328125 748 439.328125 780 c 1
 465.328125 792 537.328125 737 537.328125 737 c 1
 587.328125 762 649.328125 774 724.328125 772 c 1
EndSplineSet
EndChar

StartChar: Y
Encoding: 89 89 25
Width: 625
Flags: HW
LayerCount: 2
Back
Fore
SplineSet
253 627 m 1
 253 587 280 476 314 470 c 1
 345 489 396 587 381 639 c 1
 437 685 437 738 428 770 c 0
 418 806 489 799 526 776 c 1
 589 778 624 692 608 683 c 0
 535 642 514 651 535 564 c 1
 480 545 397 460 415 354 c 1
 333 276 409 94 452 70 c 1
 413 20 364 -2 309 22 c 1
 255 -2 202 19 160 65 c 1
 248 182 243 272 183 354 c 1
 217 422 161 550 102 567 c 1
 95 685 18 700 18 700 c 1
 18 700 -4 749 45 762 c 1
 67 732 144 775 131 771 c 1
 150 820 254 801 248 769 c 0
 235 683 227 663 253 627 c 1
EndSplineSet
EndChar

StartChar: a
Encoding: 97 97 26
Width: 2095
Flags: HW
LayerCount: 2
Back
Fore
SplineSet
2095 531 m 1
 2087 520.333333333 2077.83333333 510.833333333 2067.5 502.5 c 128
 2057.16666667 494.166666667 2046 488.333333333 2034 485 c 1
 2028 456.333333333 2017.66666667 436.666666667 2003 426 c 1
 1973 481.333333333 1936.66666667 497.666666667 1894 475 c 1
 1882 423.666666667 1901.33333333 388.666666667 1952 370 c 1
 1924 345.333333333 1899.33333333 331 1878 327 c 1
 1874 309.666666667 1868.66666667 296 1862 286 c 128
 1855.33333333 276 1845 267.666666667 1831 261 c 1
 1839.66666667 348.333333333 1831.33333333 392.333333333 1806 393 c 1
 1808.66666667 414.333333333 1809 433.666666667 1807 451 c 128
 1805 468.333333333 1800.33333333 482.333333333 1793 493 c 128
 1785.66666667 503.666666667 1775.5 510.166666667 1762.5 512.5 c 128
 1749.5 514.833333333 1733.33333333 511.666666667 1714 503 c 1
 1712 511 1707.33333333 517.833333333 1700 523.5 c 128
 1692.66666667 529.166666667 1683.66666667 533.333333333 1673 536 c 128
 1662.33333333 538.666666667 1650.66666667 539.666666667 1638 539 c 128
 1625.33333333 538.333333333 1612.66666667 536 1600 532 c 1
 1603.33333333 543.333333333 1609.33333333 554.333333333 1618 565 c 128
 1626.66666667 575.666666667 1638 584.333333333 1652 591 c 1
 1650 614.333333333 1658 633 1676 647 c 1
 1682.66666667 617.666666667 1693 601 1707 597 c 0
 1718.33333333 593 1729.16666667 591.5 1739.5 592.5 c 128
 1749.83333333 593.5 1761 596.666666667 1773 602 c 1
 1777 612 1778.5 622.333333333 1777.5 633 c 128
 1776.5 643.666666667 1774.33333333 654 1771 664 c 1
 1766.33333333 669.333333333 1761.66666667 674.333333333 1757 679 c 0
 1753 683 1749 687.333333333 1745 692 c 128
 1741 696.666666667 1738 700.666666667 1736 704 c 1
 1737.33333333 707.333333333 1740.66666667 710.166666667 1746 712.5 c 128
 1751.33333333 714.833333333 1757 716.666666667 1763 718 c 0
 1770.33333333 720 1778 721.333333333 1786 722 c 1
 1795.33333333 749.333333333 1813.66666667 775.333333333 1841 800 c 1
 1825.66666667 724.666666667 1835 679.666666667 1869 665 c 1
 1857.66666667 625.666666667 1859 596.666666667 1873 578 c 128
 1887 559.333333333 1918.66666667 552 1968 556 c 1
 1977.33333333 540 1992.33333333 530.666666667 2013 528 c 128
 2033.66666667 525.333333333 2061 526.333333333 2095 531 c 1
1729 304 m 0
 1741.66666667 278 1747 254.833333333 1745 234.5 c 128
 1743 214.166666667 1736.33333333 196.666666667 1725 182 c 128
 1713.66666667 167.333333333 1698.83333333 156.333333333 1680.5 149 c 128
 1662.16666667 141.666666667 1643.5 138.333333333 1624.5 139 c 128
 1605.5 139.666666667 1587.5 144.5 1570.5 153.5 c 128
 1553.5 162.5 1540.33333333 176.666666667 1531 196 c 0
 1523.66666667 210 1517.16666667 221 1511.5 229 c 128
 1505.83333333 237 1500.33333333 242.833333333 1495 246.5 c 128
 1489.66666667 250.166666667 1484.5 252 1479.5 252 c 128
 1474.5 252 1469 251.666666667 1463 251 c 1
 1469 257.666666667 1471 266.166666667 1469 276.5 c 128
 1467 286.833333333 1463.66666667 297 1459 307 c 0
 1453 319 1445.66666667 331 1437 343 c 0
 1425 364.333333333 1419.66666667 384.666666667 1421 404 c 128
 1422.33333333 423.333333333 1428 440.666666667 1438 456 c 128
 1448 471.333333333 1461.33333333 483.666666667 1478 493 c 128
 1494.66666667 502.333333333 1512.33333333 507.5 1531 508.5 c 128
 1549.66666667 509.5 1568.5 505.666666667 1587.5 497 c 128
 1606.5 488.333333333 1623.33333333 473.333333333 1638 452 c 0
 1640 448.666666667 1643.33333333 443.166666667 1648 435.5 c 128
 1652.66666667 427.833333333 1658 420.666666667 1664 414 c 128
 1670 407.333333333 1676.33333333 402.5 1683 399.5 c 128
 1689.66666667 396.5 1696.66666667 397.666666667 1704 403 c 1
 1699.33333333 391.666666667 1697.5 381.166666667 1698.5 371.5 c 128
 1699.5 361.833333333 1701.83333333 352.833333333 1705.5 344.5 c 128
 1709.16666667 336.166666667 1713.33333333 328.666666667 1718 322 c 128
 1722.66666667 315.333333333 1726.33333333 309.333333333 1729 304 c 0
1449 201 m 256
 1453 193 1457.16666667 181.333333333 1461.5 166 c 128
 1465.83333333 150.666666667 1467.33333333 134.666666667 1466 118 c 128
 1464.66666667 101.333333333 1459.16666667 85.8333333333 1449.5 71.5 c 128
 1439.83333333 57.1666666667 1423.33333333 47 1400 41 c 0
 1383.33333333 37 1368.83333333 35.5 1356.5 36.5 c 128
 1344.16666667 37.5 1333.66666667 39.1666666667 1325 41.5 c 128
 1316.33333333 43.8333333333 1309.33333333 46.1666666667 1304 48.5 c 128
 1298.66666667 50.8333333333 1294.66666667 51.3333333333 1292 50 c 0
 1286 47.3333333333 1280.66666667 43.6666666667 1276 39 c 128
 1271.33333333 34.3333333333 1267.33333333 29.6666666667 1264 25 c 128
 1260.66666667 20.3333333333 1258.16666667 15.8333333333 1256.5 11.5 c 128
 1254.83333333 7.16666666667 1254 3.66666666667 1254 1 c 0
 1254 -1 1252.5 -0.666666666667 1249.5 2 c 128
 1246.5 4.66666666667 1243.33333333 8.83333333333 1240 14.5 c 128
 1236.66666667 20.1666666667 1234 26.6666666667 1232 34 c 128
 1230 41.3333333333 1229.66666667 48.6666666667 1231 56 c 0
 1234.33333333 69.3333333333 1235.66666667 79 1235 85 c 128
 1234.33333333 91 1230 96.6666666667 1222 102 c 0
 1218 104.666666667 1216.33333333 108.5 1217 113.5 c 128
 1217.66666667 118.5 1219.33333333 123.666666667 1222 129 c 0
 1224.66666667 135 1228.66666667 141.666666667 1234 149 c 1
 1236 145 1241.5 139.166666667 1250.5 131.5 c 128
 1259.5 123.833333333 1269.83333333 117 1281.5 111 c 128
 1293.16666667 105 1305.33333333 101 1318 99 c 128
 1330.66666667 97 1342.33333333 99.6666666667 1353 107 c 0
 1370.33333333 119.666666667 1377.83333333 132.666666667 1375.5 146 c 128
 1373.16666667 159.333333333 1365 169.666666667 1351 177 c 0
 1337.66666667 184.333333333 1326.33333333 186.5 1317 183.5 c 128
 1307.66666667 180.5 1302 177 1300 173 c 0
 1298.66666667 171 1297.16666667 171.166666667 1295.5 173.5 c 128
 1293.83333333 175.833333333 1291.66666667 178.833333333 1289 182.5 c 128
 1286.33333333 186.166666667 1283.16666667 189.833333333 1279.5 193.5 c 128
 1275.83333333 197.166666667 1271.66666667 199.666666667 1267 201 c 0
 1262.33333333 201.666666667 1255.66666667 204 1247 208 c 128
 1238.33333333 212 1229.66666667 217.5 1221 224.5 c 128
 1212.33333333 231.5 1204.83333333 239.833333333 1198.5 249.5 c 128
 1192.16666667 259.166666667 1189 270.666666667 1189 284 c 0
 1189 296.666666667 1189.5 307.5 1190.5 316.5 c 128
 1191.5 325.5 1193.16666667 333.333333333 1195.5 340 c 128
 1197.83333333 346.666666667 1201.16666667 352.833333333 1205.5 358.5 c 128
 1209.83333333 364.166666667 1215.66666667 370 1223 376 c 0
 1232.33333333 384 1242 389 1252 391 c 128
 1262 393 1271.5 393.666666667 1280.5 393 c 128
 1289.5 392.333333333 1297.83333333 391.166666667 1305.5 389.5 c 128
 1313.16666667 387.833333333 1319.66666667 387 1325 387 c 0
 1335 387.666666667 1343.66666667 392 1351 400 c 128
 1358.33333333 408 1361.66666667 416 1361 424 c 1
 1365.66666667 422 1369.83333333 418.5 1373.5 413.5 c 128
 1377.16666667 408.5 1380.66666667 401.333333333 1384 392 c 0
 1385.33333333 388 1385.5 384.333333333 1384.5 381 c 128
 1383.5 377.666666667 1382.16666667 374.833333333 1380.5 372.5 c 128
 1378.83333333 370.166666667 1377.66666667 368 1377 366 c 128
 1376.33333333 364 1377 362 1379 360 c 0
 1390.33333333 352.666666667 1397.5 344.833333333 1400.5 336.5 c 128
 1403.5 328.166666667 1405 320.333333333 1405 313 c 0
 1404.33333333 305 1402.33333333 296.666666667 1399 288 c 1
 1398.33333333 289.333333333 1394.66666667 293.5 1388 300.5 c 128
 1381.33333333 307.5 1373.33333333 314 1364 320 c 128
 1354.66666667 326 1344.33333333 330 1333 332 c 128
 1321.66666667 334 1310.66666667 330.666666667 1300 322 c 0
 1296.66666667 319.333333333 1294.33333333 312.333333333 1293 301 c 128
 1291.66666667 289.666666667 1293.16666667 279 1297.5 269 c 128
 1301.83333333 259 1309.5 252.166666667 1320.5 248.5 c 128
 1331.5 244.833333333 1348 249.666666667 1370 263 c 1
 1371.33333333 255.666666667 1375.33333333 249.833333333 1382 245.5 c 128
 1388.66666667 241.166666667 1396.33333333 237 1405 233 c 128
 1413.66666667 229 1422.16666667 224.666666667 1430.5 220 c 128
 1438.83333333 215.333333333 1445 209 1449 201 c 256
915 324 m 0
 915.666666667 301.333333333 913.833333333 282.5 909.5 267.5 c 128
 905.166666667 252.5 901.166666667 239.833333333 897.5 229.5 c 128
 893.833333333 219.166666667 891.833333333 210.5 891.5 203.5 c 128
 891.166666667 196.5 895 189.333333333 903 182 c 1
 889 176 878.666666667 168.333333333 872 159 c 128
 865.333333333 149.666666667 859.5 139 854.5 127 c 128
 849.5 115 844 102.333333333 838 89 c 128
 832 75.6666666667 822.666666667 62.3333333333 810 49 c 0
 806 45 799.166666667 40.6666666667 789.5 36 c 128
 779.833333333 31.3333333333 769 28.5 757 27.5 c 128
 745 26.5 732.666666667 28.1666666667 720 32.5 c 128
 707.333333333 36.8333333333 696 46 686 60 c 0
 674.666666667 76 664 87 654 93 c 128
 644 99 634.5 102.5 625.5 103.5 c 128
 616.5 104.5 607.833333333 104 599.5 102 c 128
 591.166666667 100 583 99 575 99 c 1
 581.666666667 105 590.833333333 115 602.5 129 c 128
 614.166666667 143 624.666666667 158.666666667 634 176 c 128
 643.333333333 193.333333333 649.833333333 211.666666667 653.5 231 c 128
 657.166666667 250.333333333 654.333333333 268.333333333 645 285 c 1
 651.666666667 289.666666667 659.666666667 295 669 301 c 128
 678.333333333 307 687 315.333333333 695 326 c 128
 703 336.666666667 709.833333333 350.166666667 715.5 366.5 c 128
 721.166666667 382.833333333 723.666666667 404 723 430 c 1
 731 428.666666667 737.666666667 426.166666667 743 422.5 c 128
 748.333333333 418.833333333 753 414.833333333 757 410.5 c 128
 761 406.166666667 765 402.333333333 769 399 c 128
 773 395.666666667 778.333333333 393.666666667 785 393 c 0
 794.333333333 393 806.166666667 393.333333333 820.5 394 c 128
 834.833333333 394.666666667 848.833333333 393.333333333 862.5 390 c 128
 876.166666667 386.666666667 888.166666667 380 898.5 370 c 128
 908.833333333 360 914.333333333 344.666666667 915 324 c 0
692 434 m 1
 691.333333333 431.333333333 690 428 688 424 c 128
 686 420 683.5 416 680.5 412 c 128
 677.5 408 674.5 404.166666667 671.5 400.5 c 128
 668.5 396.833333333 665.666666667 394.333333333 663 393 c 0
 657 390.333333333 653.333333333 385.333333333 652 378 c 128
 650.666666667 370.666666667 649.333333333 364 648 358 c 0
 647.333333333 354.666666667 645.333333333 351.5 642 348.5 c 128
 638.666666667 345.5 634.833333333 343 630.5 341 c 128
 626.166666667 339 621.5 338 616.5 338 c 128
 611.5 338 607 339.666666667 603 343 c 0
 597 347.666666667 593 353.5 591 360.5 c 128
 589 367.5 587.5 374.5 586.5 381.5 c 128
 585.5 388.5 584.166666667 395.166666667 582.5 401.5 c 128
 580.833333333 407.833333333 577.666666667 412.666666667 573 416 c 0
 567.666666667 419.333333333 561.5 421.333333333 554.5 422 c 128
 547.5 422.666666667 540.5 422.333333333 533.5 421 c 128
 526.5 419.666666667 520 417.166666667 514 413.5 c 128
 508 409.833333333 504 405.666666667 502 401 c 0
 495.333333333 387 493 375.166666667 495 365.5 c 128
 497 355.833333333 501 348.666666667 507 344 c 128
 513 339.333333333 520.166666667 337.333333333 528.5 338 c 128
 536.833333333 338.666666667 544.666666667 342.333333333 552 349 c 1
 553.333333333 337.666666667 553 327.833333333 551 319.5 c 128
 549 311.166666667 541.333333333 305 528 301 c 1
 530 291.666666667 528.5 283 523.5 275 c 128
 518.5 267 512.333333333 261.333333333 505 258 c 1
 505 267.333333333 502.333333333 275.833333333 497 283.5 c 128
 491.666666667 291.166666667 485.5 296.666666667 478.5 300 c 128
 471.5 303.333333333 464 304 456 302 c 128
 448 300 441.666666667 294.333333333 437 285 c 0
 428.333333333 269 425.5 256.333333333 428.5 247 c 128
 431.5 237.666666667 437.166666667 230.666666667 445.5 226 c 128
 453.833333333 221.333333333 463.166666667 218.666666667 473.5 218 c 128
 483.833333333 217.333333333 492.666666667 217.666666667 500 219 c 0
 506.666666667 221 511.5 220.333333333 514.5 217 c 128
 517.5 213.666666667 519 209.666666667 519 205 c 128
 519 200.333333333 518 195.666666667 516 191 c 128
 514 186.333333333 511.666666667 183 509 181 c 0
 507 179 504.333333333 175.166666667 501 169.5 c 128
 497.666666667 163.833333333 494.333333333 157.166666667 491 149.5 c 128
 487.666666667 141.833333333 484.833333333 133.666666667 482.5 125 c 128
 480.166666667 116.333333333 478.666666667 108.666666667 478 102 c 1
 475.333333333 106.666666667 472.166666667 112.833333333 468.5 120.5 c 128
 464.833333333 128.166666667 460.333333333 135.833333333 455 143.5 c 128
 449.666666667 151.166666667 443.5 157.5 436.5 162.5 c 128
 429.5 167.5 421.333333333 169.666666667 412 169 c 256
 402.666666667 168.333333333 393.333333333 169.5 384 172.5 c 128
 374.666666667 175.5 366 179.666666667 358 185 c 128
 350 190.333333333 343.333333333 196.333333333 338 203 c 128
 332.666666667 209.666666667 329 216.333333333 327 223 c 0
 325 225.666666667 321.333333333 226.833333333 316 226.5 c 128
 310.666666667 226.166666667 305 226.666666667 299 228 c 128
 293 229.333333333 287.166666667 232.666666667 281.5 238 c 128
 275.833333333 243.333333333 271 253.333333333 267 268 c 1
 263.666666667 270 264.166666667 272.166666667 268.5 274.5 c 128
 272.833333333 276.833333333 279.333333333 280.166666667 288 284.5 c 128
 296.666666667 288.833333333 306.5 294.5 317.5 301.5 c 128
 328.5 308.5 339.166666667 317.5 349.5 328.5 c 128
 359.833333333 339.5 368.833333333 353 376.5 369 c 128
 384.166666667 385 389 404 391 426 c 1
 400.333333333 426 411.5 430.333333333 424.5 439 c 128
 437.5 447.666666667 449.5 458.666666667 460.5 472 c 128
 471.5 485.333333333 480.333333333 499.666666667 487 515 c 128
 493.666666667 530.333333333 496 544.333333333 494 557 c 1
 503.333333333 555.666666667 511.666666667 552.333333333 519 547 c 128
 526.333333333 541.666666667 532.5 535.666666667 537.5 529 c 128
 542.5 522.333333333 546.666666667 516 550 510 c 128
 553.333333333 504 556 500 558 498 c 0
 560.666666667 496 565.5 495 572.5 495 c 128
 579.5 495 587 493.666666667 595 491 c 128
 603 488.333333333 610.666666667 483.333333333 618 476 c 128
 625.333333333 468.666666667 631 456.666666667 635 440 c 0
 635 438.666666667 636.666666667 436.666666667 640 434 c 128
 643.333333333 431.333333333 647.666666667 429.333333333 653 428 c 128
 658.333333333 426.666666667 664.333333333 426.166666667 671 426.5 c 128
 677.666666667 426.833333333 684.666666667 429.333333333 692 434 c 1
397 661 m 0
 406.333333333 650.333333333 410.666666667 638 410 624 c 128
 409.333333333 610 407.166666667 595.833333333 403.5 581.5 c 128
 399.833333333 567.166666667 396.166666667 553.333333333 392.5 540 c 128
 388.833333333 526.666666667 388.666666667 515.666666667 392 507 c 1
 382 506.333333333 374.166666667 505.333333333 368.5 504 c 128
 362.833333333 502.666666667 358.333333333 504.666666667 355 510 c 1
 353 504 349.166666667 498.333333333 343.5 493 c 128
 337.833333333 487.666666667 331.666666667 483.333333333 325 480 c 128
 318.333333333 476.666666667 312 474.5 306 473.5 c 128
 300 472.5 295.666666667 473 293 475 c 1
 290.333333333 456.333333333 287 443.833333333 283 437.5 c 128
 279 431.166666667 274.333333333 428 269 428 c 1
 271.666666667 419.333333333 272.333333333 410.333333333 271 401 c 0
 270.333333333 396.333333333 269.333333333 392 268 388 c 1
 258.666666667 382.666666667 252.666666667 376.833333333 250 370.5 c 128
 247.333333333 364.166666667 246.666666667 358 248 352 c 128
 249.333333333 346 251.666666667 340.833333333 255 336.5 c 128
 258.333333333 332.166666667 261.333333333 329 264 327 c 1
 238 319.666666667 217.666666667 317.333333333 203 320 c 128
 188.333333333 322.666666667 177.333333333 326.666666667 170 332 c 0
 161.333333333 338.666666667 156 347.333333333 154 358 c 0
 155.333333333 364 156.5 372.166666667 157.5 382.5 c 128
 158.5 392.833333333 159.333333333 403 160 413 c 0
 160.666666667 425 161 437.333333333 161 450 c 1
 183 450.666666667 197.5 455 204.5 463 c 128
 211.5 471 214.5 479.666666667 213.5 489 c 128
 212.5 498.333333333 209 506.5 203 513.5 c 128
 197 520.5 192.333333333 523.333333333 189 522 c 0
 171.666666667 525.333333333 156.5 523.333333333 143.5 516 c 128
 130.5 508.666666667 119.833333333 499.666666667 111.5 489 c 128
 103.166666667 478.333333333 97 467.833333333 93 457.5 c 128
 89 447.166666667 87 440.666666667 87 438 c 1
 76.3333333333 439.333333333 68.3333333333 443.333333333 63 450 c 128
 57.6666666667 456.666666667 53.6666666667 463.666666667 51 471 c 0
 48.3333333333 479 46.3333333333 488.333333333 45 499 c 1
 37 499.666666667 30 502 24 506 c 128
 18 510 13.3333333333 514.666666667 10 520 c 0
 6 526 2.66666666667 532.333333333 0 539 c 1
 4 537 13.5 538.166666667 28.5 542.5 c 128
 43.5 546.833333333 59.5 554 76.5 564 c 128
 93.5 574 109.166666667 587 123.5 603 c 128
 137.833333333 619 146.666666667 638 150 660 c 1
 164 662 177.166666667 664.5 189.5 667.5 c 128
 201.833333333 670.5 213.5 675.166666667 224.5 681.5 c 128
 235.5 687.833333333 246 696.833333333 256 708.5 c 128
 266 720.166666667 276 736 286 756 c 1
 294 751.333333333 300.333333333 745.666666667 305 739 c 128
 309.666666667 732.333333333 313.333333333 726 316 720 c 0
 318.666666667 712.666666667 321 705.333333333 323 698 c 1
 334.333333333 698.666666667 344.333333333 697 353 693 c 128
 361.666666667 689 369.333333333 684.666666667 376 680 c 0
 383.333333333 674 390.333333333 667.666666667 397 661 c 0
805 329 m 0
 792.333333333 330.333333333 781.833333333 327.333333333 773.5 320 c 128
 765.166666667 312.666666667 759.166666667 303.833333333 755.5 293.5 c 128
 751.833333333 283.166666667 750.166666667 272.666666667 750.5 262 c 128
 750.833333333 251.333333333 753.666666667 243.333333333 759 238 c 1
 745.666666667 238.666666667 734.833333333 233.333333333 726.5 222 c 128
 718.166666667 210.666666667 713.333333333 197.666666667 712 183 c 128
 710.666666667 168.333333333 712.666666667 154.166666667 718 140.5 c 128
 723.333333333 126.833333333 732.666666667 118 746 114 c 1
 760 114.666666667 772.166666667 119.666666667 782.5 129 c 128
 792.833333333 138.333333333 800.166666667 149.166666667 804.5 161.5 c 128
 808.833333333 173.833333333 810.166666667 186 808.5 198 c 128
 806.833333333 210 801 219.666666667 791 227 c 1
 804.333333333 223.666666667 814.833333333 226.833333333 822.5 236.5 c 128
 830.166666667 246.166666667 834.5 257.666666667 835.5 271 c 128
 836.5 284.333333333 834.5 297 829.5 309 c 128
 824.5 321 816.333333333 327.666666667 805 329 c 0
330 587 m 0
 330 600.333333333 325.333333333 611 316 619 c 128
 306.666666667 627 295.333333333 632.333333333 282 635 c 0
 266.666666667 638.333333333 253.5 634.166666667 242.5 622.5 c 128
 231.5 610.833333333 225.333333333 598.333333333 224 585 c 0
 222.666666667 569 225 556.333333333 231 547 c 128
 237 537.666666667 251.666666667 532.666666667 275 532 c 0
 281.666666667 532 288.166666667 533.5 294.5 536.5 c 128
 300.833333333 539.5 306.666666667 543.666666667 312 549 c 128
 317.333333333 554.333333333 321.666666667 560.333333333 325 567 c 128
 328.333333333 573.666666667 330 580.333333333 330 587 c 0
1657 305 m 0
 1649.66666667 317 1643 326.666666667 1637 334 c 128
 1631 341.333333333 1621 343.333333333 1607 340 c 1
 1611 348.666666667 1612.83333333 355.833333333 1612.5 361.5 c 128
 1612.16666667 367.166666667 1608.33333333 375.666666667 1601 387 c 0
 1585.66666667 409.666666667 1570.83333333 423.833333333 1556.5 429.5 c 128
 1542.16666667 435.166666667 1530.83333333 434.833333333 1522.5 428.5 c 128
 1514.16666667 422.166666667 1510.5 411.166666667 1511.5 395.5 c 128
 1512.5 379.833333333 1520.66666667 362.333333333 1536 343 c 0
 1543.33333333 333.666666667 1550.33333333 326.833333333 1557 322.5 c 128
 1563.66666667 318.166666667 1571 317.666666667 1579 321 c 1
 1575 312.333333333 1572.5 305.5 1571.5 300.5 c 128
 1570.5 295.5 1570.5 291 1571.5 287 c 128
 1572.5 283 1574.5 279 1577.5 275 c 128
 1580.5 271 1584.33333333 265.666666667 1589 259 c 0
 1600.33333333 242.333333333 1612.33333333 232.166666667 1625 228.5 c 128
 1637.66666667 224.833333333 1648 225.666666667 1656 231 c 128
 1664 236.333333333 1668.83333333 245.666666667 1670.5 259 c 128
 1672.16666667 272.333333333 1667.66666667 287.666666667 1657 305 c 0
EndSplineSet
EndChar

StartChar: C
Encoding: 67 67 27
Width: 575
Flags: HW
LayerCount: 2
Back
Fore
SplineSet
204.5703125 523 m 0
 208.5703125 476 222.5703125 431 256.5703125 425 c 1
 192.5703125 384 202.5703125 354 203.5703125 291 c 0
 204.5703125 133 369.5703125 82 377.5703125 243 c 1
 399.5703125 296 485.5703125 237 484.5703125 214 c 0
 484.5703125 191 533.5703125 107 575.5703125 70 c 1
 533.5703125 75 439.5703125 96 400.5703125 33 c 1
 263.5703125 -58 15.5703125 45 31.5703125 231 c 0
 42.5703125 358 25.5703125 384 -17.4296875 419 c 1
 53.5703125 441 33.5703125 585 33.5703125 585 c 1
 40.5703125 776 227.5703125 840 359.5703125 774 c 1
 405.5703125 769 403.5703125 771 472.5703125 788 c 1
 484.5703125 739 498.5703125 710 452.5703125 673 c 1
 450.5703125 614 492.5703125 557 435.5703125 574 c 1
 386.5703125 600 339.5703125 622 311.5703125 637 c 0
 263.5703125 666 194.5703125 645 204.5703125 523 c 0
EndSplineSet
EndChar

StartChar: A
Encoding: 65 65 28
Width: 645
Flags: HW
LayerCount: 2
Back
Fore
SplineSet
452.537109375 430 m 1
 398.537109375 322 497.537109375 101 607.537109375 21 c 1
 556.537109375 13 503.537109375 16 459.537109375 40 c 1
 410.537109375 7 377.537109375 5 343.537109375 10 c 1
 374.537109375 131 324.537109375 257 234.537109375 285 c 1
 145.537109375 229 119.537109375 110 166.537109375 12 c 1
 94.537109375 0 65.537109375 -14 17.537109375 23 c 1
 -43.462890625 0 -74.462890625 -14 -100.462890625 25 c 1
 -12.462890625 97 63.537109375 316 2.537109375 427 c 1
 81.537109375 474 106.537109375 611 102.537109375 705 c 0
 100.537109375 743 36.537109375 790 89.537109375 790 c 1
 131.537109375 813 171.537109375 792 231.537109375 771 c 1
 266.537109375 800 273.537109375 788 339.537109375 800 c 1
 365.537109375 790 369.537109375 764 327.537109375 716 c 1
 301.537109375 618 395.537109375 478 452.537109375 430 c 1
 452.537109375 430 l 1
218.537109375 567 m 1
 175.537109375 505 107.537109375 386 242.537109375 386 c 1
 341.537109375 399 289.537109375 524 218.537109375 567 c 1
EndSplineSet
EndChar

StartChar: B
Encoding: 66 66 29
Width: 595
Flags: HW
LayerCount: 2
Back
Fore
SplineSet
588 251 m 1
 513 201 604 165 521 80 c 0
 467 23 419 -4 354 2 c 0
 258 10 219 38 219 38 c 1
 85 -65 39 76 15 72 c 1
 85 125 91 335 19 370 c 1
 101 472 55 643 50 668 c 0
 46 692 21 715 19 730 c 1
 49 746 117 724 128 735 c 0
 152 759 255 824 361 769 c 0
 442 727 461 665 459 625 c 0
 455 564 511 555 511 555 c 1
 490 533 473 525 479 505 c 0
 484 488 471 429 423 392 c 1
 451 384 478 383 512 359 c 0
 550 332 523 265 588 251 c 1
 588 251 l 1
306 549 m 1
 362 623 312 670 223 652 c 1
 161 629 151 594 178 518 c 1
 182 472 218 454 278 462 c 1
 345 483 330 541 306 549 c 1
 306 549 l 1
352 266 m 1
 379 328 354 369 252 363 c 1
 204 341 175 326 190 236 c 1
 193 172 236 156 325 162 c 1
 379 179 409 240 352 266 c 1
EndSplineSet
EndChar
